<?xml version="1.0" standalone="no"?>
<!DOCTYPE svg PUBLIC "-//W3C//DTD SVG 20010904//EN"
 "http://www.w3.org/TR/2001/REC-SVG-20010904/DTD/svg10.dtd">
<svg version="1.0" xmlns="http://www.w3.org/2000/svg"
 width="512.000000pt" height="512.000000pt" viewBox="0 0 512.000000 512.000000"
 preserveAspectRatio="xMidYMid meet">
<metadata>
Created by potrace 1.14, written by Peter Selinger 2001-2017
</metadata>
<g transform="translate(0.000000,512.000000) scale(0.100000,-0.100000)"
fill="#000000" stroke="none">
<path d="M3992 5089 c-35 -18 -64 -52 -69 -79 -7 -37 -5 -241 1 -248 4 -4 111
-7 237 -8 l229 0 0 125 c0 138 -11 171 -65 207 -40 26 -283 28 -333 3z"/>
<path d="M3919 4625 c0 -16 0 -144 0 -282 0 -139 -1 -253 -3 -253 -2 0 -16 11
-32 25 -81 71 -262 177 -409 238 -152 63 -382 127 -516 142 -29 4 -56 8 -59
10 -28 17 -557 26 -680 12 -485 -59 -832 -206 -1111 -469 -151 -144 -280 -354
-308 -502 l-8 -42 115 58 c63 32 121 58 128 58 8 0 14 4 14 9 0 25 112 172
190 250 98 99 222 186 361 254 84 41 234 98 292 112 85 20 282 56 336 62 91
10 457 10 564 0 121 -11 343 -59 457 -97 256 -87 502 -249 630 -413 26 -35 44
-47 71 -52 82 -14 271 -129 394 -239 l40 -36 3 586 c1 323 0 590 -4 593 -3 3
-108 6 -235 6 l-229 1 -1 -31z"/>
<path d="M1978 3685 c-2 -2 -52 -6 -111 -10 -60 -4 -118 -8 -130 -10 -12 -2
-60 -9 -107 -15 -118 -15 -291 -55 -402 -92 -285 -94 -459 -233 -572 -455 -30
-60 -72 -185 -81 -240 -3 -21 -9 -53 -13 -72 l-8 -35 -57 2 c-51 1 -62 -3 -90
-28 l-32 -28 -3 -125 c-5 -178 12 -205 129 -210 l62 -2 18 -85 c47 -223 146
-422 283 -569 40 -44 160 -131 211 -155 170 -78 452 -80 665 -3 l65 24 70 -51
c203 -148 388 -223 575 -233 87 -4 131 1 260 32 116 27 308 130 487 261 21 15
26 15 55 1 123 -58 302 -94 451 -91 198 5 345 65 482 199 157 152 255 341 310
596 l16 76 36 1 c39 2 68 22 87 62 20 40 14 251 -8 285 -18 27 -22 29 -68 39
-27 6 -31 14 -42 96 -7 51 -44 166 -76 236 -150 332 -491 511 -1105 579 -27 4
-70 8 -95 11 -46 5 -1257 13 -1262 9z m368 -575 l0 -205 -42 -55 c-110 -145
-275 -426 -422 -720 -55 -111 -105 -164 -194 -208 -95 -47 -178 -65 -294 -65
-87 0 -107 3 -155 26 -30 14 -65 36 -79 49 -101 93 -187 264 -220 433 -6 33
-15 76 -19 95 -4 19 -6 89 -5 155 5 244 81 410 231 505 90 57 283 123 427 146
21 3 48 8 60 10 11 3 44 7 71 10 28 3 61 7 75 10 14 2 75 7 135 10 61 4 111 7
112 8 2 1 74 2 160 2 l158 -1 1 -205z m734 196 c85 -3 166 -8 180 -10 14 -3
52 -7 85 -10 217 -19 479 -95 602 -175 197 -127 270 -405 197 -754 -43 -206
-169 -414 -287 -471 -115 -57 -343 -34 -488 49 -76 43 -105 80 -186 236 -44
85 -92 175 -107 202 -14 26 -37 66 -50 90 -80 144 -191 318 -251 392 l-32 40
0 200 c-1 110 3 205 7 210 9 10 70 11 330 1z m-487 -761 c57 -27 88 -90 101
-200 3 -27 8 -61 10 -75 6 -39 17 -111 22 -155 3 -22 9 -65 14 -95 47 -280 46
-337 -7 -400 -37 -44 -69 -53 -198 -52 -142 0 -170 10 -213 74 -23 36 -27 51
-27 112 1 91 98 674 119 712 46 85 109 112 179 79z"/>
<path d="M4313 1592 c-65 -69 -155 -138 -223 -171 -14 -6 -59 -22 -100 -35
l-75 -24 -1 -289 c-1 -160 -4 -307 -8 -328 -30 -161 -176 -243 -441 -251 -165
-5 -302 24 -375 78 -30 22 -70 76 -70 94 0 5 23 20 51 33 103 49 213 199 202
275 -6 41 -33 77 -69 92 -24 10 -42 8 -109 -12 -44 -14 -91 -27 -105 -29 -14
-3 -36 -7 -50 -11 -14 -3 -72 -7 -130 -8 -114 -3 -230 13 -324 44 -93 31 -139
25 -178 -24 -64 -79 63 -285 208 -338 20 -7 34 -19 34 -28 0 -31 38 -167 61
-216 112 -244 359 -393 693 -421 596 -49 999 197 1076 657 7 42 10 228 8 527
l-3 462 -72 -77z"/>
</g>
</svg>
